<svg width="33" height="32" viewBox="0 0 33 32" fill="none" xmlns="http://www.w3.org/2000/svg">
<path d="M14.7237 24.5707H18.2335V17.7224H25.2957V14.3191H18.2335V7.47082H14.7237V14.3191H7.66148V17.7224H14.7237V24.5707ZM4.02335 32C2.90908 32 1.95995 31.6199 1.17597 30.8597C0.391991 30.0994 0 29.1791 0 28.0986V3.94293C0 2.851 0.391991 1.92087 1.17597 1.15254C1.95995 0.38418 2.90908 0 4.02335 0H28.9339C30.0599 0 31.0191 0.38418 31.8114 1.15254C32.6038 1.92087 33 2.851 33 3.94293V28.0986C33 29.1791 32.6038 30.0994 31.8114 30.8597C31.0191 31.6199 30.0599 32 28.9339 32H4.02335Z" fill="#E7E6EA"/>
</svg>
