<?xml version="1.0" encoding="UTF-8"?>
<svg id="Camada_2" data-name="Camada 2" xmlns="http://www.w3.org/2000/svg" viewBox="0 0 424.57 423.23">
  <defs>
    <style>
      .cls-1 {
        fill: #ff3d00;
      }

      .cls-1, .cls-2, .cls-3, .cls-4 {
        stroke-width: 0px;
      }

      .cls-2 {
        fill: #4caf50;
      }

      .cls-3 {
        fill: #ffc107;
      }

      .cls-4 {
        fill: #1976d2;
      }
    </style>
  </defs>
  <g id="Camada_1-2" data-name="Camada 1">
    <g>
      <path class="cls-1" d="M212.64,0C130.86,0,59.88,46.32,24.53,114.15l70.04,48.13c19.02-46.51,64.72-79.28,118.07-79.28,33.11,0,63.27,12.62,85.94,33.32l59.2-58.83C319.86,21.84,268.8,0,212.64,0Z"/>
      <path class="cls-4" d="M420.25,168.85l-86.9.3-121.18.42.77,84.97,119.32-.41c-8.43,22.93-23.26,42.76-42.33,57.34l64.83,57.36c32.93-29.79,56.46-69.78,65.6-115,2.76-13.64,4.21-27.77,4.21-42.23s-1.49-28.94-4.32-42.75h0Z"/>
      <path class="cls-2" d="M290.17,311.1c-21.46,16.39-48.27,26.13-77.36,26.13-55.49,0-102.7-35.44-120.22-84.93l-68.85,54.92c35.02,68.85,106.54,116.01,189.07,116.01,54.71,0,104.58-20.73,142.19-54.77l-64.83-57.36h0Z"/>
      <path class="cls-3" d="M93.93,161.88L23.89,113.75C8.63,143.02,0,176.3,0,211.6s8.27,67.17,22.93,95.99l68.85-54.92c-4.71-13.31-7.28-27.64-7.28-42.57,0-17.07,3.35-33.35,9.43-48.22Z"/>
    </g>
  </g>
</svg>