<svg width="38" height="18" viewBox="0 0 38 18" fill="none" xmlns="http://www.w3.org/2000/svg">
<path d="M8.84898 10.3598C8.37218 10.3598 7.96922 10.2011 7.64011 9.88394C7.311 9.56677 7.14644 9.17365 7.14644 8.7046C7.14644 8.23557 7.30767 7.83919 7.63014 7.51545C7.95258 7.1917 8.35221 7.02983 8.82905 7.02983C9.30585 7.02983 9.70881 7.18844 10.0379 7.50564C10.367 7.82282 10.5316 8.21593 10.5316 8.68499C10.5316 9.15401 10.3704 9.5504 10.0479 9.87414C9.72546 10.1979 9.32582 10.3598 8.84898 10.3598ZM8.83902 17.3896C6.39418 17.3896 4.3098 16.5417 2.58588 14.8459C0.861961 13.1501 0 11.0997 0 8.69479C0 6.28985 0.861961 4.23948 2.58588 2.54369C4.3098 0.847896 6.39418 0 8.83902 0C10.751 0 12.4671 0.524154 13.9873 1.57246C15.5075 2.62077 16.5614 4.02365 17.1491 5.78111H34.7449L37.8479 8.83354L32.7702 13.5509L29.6201 11.2385L26.1879 13.6434L23.1789 11.6085H17.1609C16.5967 13.2734 15.5623 14.6532 14.0578 15.7477C12.5533 16.8423 10.8137 17.3896 8.83902 17.3896ZM8.83902 16.3721C10.7197 16.3721 12.3417 15.794 13.7052 14.6378C15.0686 13.4816 15.9354 12.1326 16.3054 10.591H23.555L26.1879 12.3947L29.6671 9.98976L32.7702 12.3022L36.3904 8.78729L34.3687 6.79859H16.3146C15.9698 5.28779 15.1187 3.94657 13.7614 2.77493C12.4041 1.60329 10.7673 1.01748 8.85129 1.01748C6.68037 1.01748 4.83482 1.76272 3.31463 3.25319C1.79445 4.74364 1.03435 6.55506 1.03435 8.68744C1.03435 10.8198 1.79267 12.6337 3.30932 14.129C4.82599 15.6244 6.66923 16.3721 8.83902 16.3721Z" fill="#FFE9FE"/>
</svg>
