<svg width="25" height="31" viewBox="0 0 25 31" fill="none" xmlns="http://www.w3.org/2000/svg">
<path d="M12.5 19.7625C13.8385 19.7625 15.0455 19.4525 16.1211 18.8325C17.1966 18.2125 18.0599 17.3858 18.7109 16.3525C17.8255 15.6808 16.8592 15.1771 15.8119 14.8413C14.7646 14.5054 13.6579 14.3375 12.4916 14.3375C11.3253 14.3375 10.2214 14.5054 9.17969 14.8413C8.13802 15.1771 7.17448 15.6808 6.28906 16.3525C6.9401 17.3858 7.8034 18.2125 8.87895 18.8325C9.95452 19.4525 11.1615 19.7625 12.5 19.7625ZM12.5035 12.0125C13.2564 12.0125 13.8997 11.7466 14.4336 11.2147C14.9674 10.6828 15.2344 10.0434 15.2344 9.29655C15.2344 8.54968 14.9663 7.91146 14.4301 7.38188C13.894 6.85229 13.2494 6.5875 12.4965 6.5875C11.7436 6.5875 11.1003 6.85344 10.5664 7.38532C10.0326 7.91718 9.76562 8.55655 9.76562 9.30345C9.76562 10.0503 10.0337 10.6885 10.5699 11.2181C11.106 11.7477 11.7506 12.0125 12.5035 12.0125ZM12.5 27.9387C15.9635 24.8129 18.5221 21.9777 20.1758 19.4331C21.8294 16.8885 22.6562 14.6475 22.6562 12.71C22.6562 9.66709 21.6759 7.17553 19.7152 5.23532C17.7545 3.29511 15.3494 2.325 12.5 2.325C9.6506 2.325 7.24555 3.29511 5.28484 5.23532C3.32411 7.17553 2.34375 9.66709 2.34375 12.71C2.34375 14.6475 3.1901 16.8885 4.88281 19.4331C6.57552 21.9777 9.11458 24.8129 12.5 27.9387ZM12.5 31C8.30729 27.4608 5.17578 24.1735 3.10547 21.1381C1.03516 18.1027 0 15.2933 0 12.71C0 8.835 1.25651 5.74792 3.76953 3.44875C6.28255 1.14958 9.19271 0 12.5 0C15.8073 0 18.7174 1.14958 21.2305 3.44875C23.7435 5.74792 25 8.835 25 12.71C25 15.2933 23.9648 18.1027 21.8945 21.1381C19.8242 24.1735 16.6927 27.4608 12.5 31Z" fill="#E7E6EA"/>
</svg>
