<svg width="21" height="26" viewBox="0 0 21 26" fill="none" xmlns="http://www.w3.org/2000/svg">
<path d="M10.5029 12.675C11.1353 12.675 11.6758 12.452 12.1242 12.0059C12.5727 11.5598 12.7969 11.0235 12.7969 10.3971C12.7969 9.7707 12.5717 9.23542 12.1213 8.79125C11.6709 8.34708 11.1295 8.125 10.4971 8.125C9.86465 8.125 9.32422 8.34805 8.87578 8.79414C8.42734 9.24022 8.20312 9.77647 8.20312 10.4029C8.20312 11.0293 8.42832 11.5646 8.8787 12.0087C9.32906 12.4529 9.87047 12.675 10.5029 12.675ZM10.5 26C6.97813 23.0317 4.34766 20.2746 2.60859 17.7288C0.869531 15.1829 0 12.8267 0 10.66C0 7.41 1.05547 4.82083 3.16641 2.8925C5.27734 0.964167 7.72188 0 10.5 0C13.2781 0 15.7227 0.964167 17.8336 2.8925C19.9445 4.82083 21 7.41 21 10.66C21 12.8267 20.1305 15.1829 18.3914 17.7288C16.6523 20.2746 14.0219 23.0317 10.5 26Z" fill="#EB5A46"/>
</svg>
