<svg width="78" height="96" viewBox="0 0 78 96" fill="none" xmlns="http://www.w3.org/2000/svg">
<path d="M39.4957 1.34313C42.1902 1.34273 44.8184 2.18074 47.018 3.7416C49.2176 5.30246 50.8802 7.5093 51.7766 10.0578C52.6731 12.6064 52.7592 15.3711 52.0231 17.9707C51.2869 20.5704 49.7648 22.877 47.6666 24.5725L46.1802 25.7746L47.8139 26.7663C55.0988 31.1874 59.8059 40.9632 59.8059 51.6768C59.8111 54.4727 59.4882 57.2594 58.8439 59.9796L58.556 61.1929L59.7411 61.5734C64.9258 63.2322 69.2355 65.5178 72.204 68.1771C75.1054 70.7895 76.6677 73.7153 76.6677 76.6366C76.6677 78.9244 75.7549 81.1697 73.9582 83.3075C72.1616 85.4453 69.4945 87.4309 66.131 89.1277C59.0403 92.6937 49.586 94.6569 39.5069 94.6569C29.4277 94.6569 19.9734 92.6937 12.8827 89.1277C9.51034 87.4309 6.87672 85.4744 5.0555 83.3075C3.23428 81.1406 2.34599 78.9244 2.34599 76.6366C2.34599 73.7153 3.88599 70.7895 6.80976 68.1771C9.77816 65.5178 14.0879 63.2322 19.2726 61.5734L20.4577 61.1929L20.1676 59.9796C19.5251 57.2592 19.203 54.4725 19.2079 51.6768C19.2079 40.9632 23.9149 31.1874 31.1998 26.7663L32.8335 25.7746L31.3449 24.5725C29.2465 22.8769 27.7244 20.5701 26.9883 17.9702C26.2522 15.3703 26.3385 12.6054 27.2352 10.0568C28.132 7.50814 29.7949 5.30132 31.9949 3.74063C34.1949 2.17994 36.8234 1.34227 39.518 1.34313M39.518 2.25404e-07C36.5465 -0.000526915 33.648 0.923554 31.2221 2.64483C28.7963 4.36611 26.9626 6.79981 25.9738 9.61038C24.985 12.4209 24.89 15.4699 25.7017 18.337C26.5133 21.2041 28.1918 23.7479 30.5057 25.6179C23.0266 30.142 17.8464 40.108 17.8464 51.6768C17.8412 54.5782 18.176 57.4701 18.8441 60.293C8.11319 63.7292 0.989014 69.7643 0.989014 76.6344C0.989014 87.3279 18.2259 95.9978 39.489 95.9978C60.7522 95.9978 77.989 87.3279 77.989 76.6344C77.989 69.762 70.8715 63.7269 60.1339 60.293C60.802 57.4701 61.1368 54.5782 61.1316 51.6768C61.1316 40.108 55.9514 30.142 48.4947 25.6179C50.8072 23.7473 52.4845 21.2034 53.2954 18.3368C54.1063 15.4702 54.0109 12.4219 53.0223 9.61187C52.0338 6.80189 50.2007 4.36853 47.7758 2.64708C45.3508 0.92562 42.4532 0.000785456 39.4823 2.25404e-07H39.518Z" fill="#FBEAF7"/>
<path d="M24.9549 45.9752C23.7189 50.692 23.9526 55.6753 25.6244 60.2549C26.4798 62.6156 27.6632 64.8433 29.1397 66.872C29.9113 67.9361 30.7539 68.9465 31.6617 69.8963C32.5232 70.7917 33.4472 71.6446 34.34 72.5154C36.1589 74.2861 38.1342 76.2672 38.4823 78.8662L38.6542 78.2125C38.7386 78.1392 38.8353 78.0816 38.9399 78.0424H38.9198C38.8417 78.0692 39.172 78.0177 39.0225 78.0289L38.7546 78.0491C38.432 78.067 38.1086 78.067 37.786 78.0491C37.5628 78.0491 37.3396 78.0177 37.1164 77.9909L36.9334 77.9685C36.8017 77.9528 37.0249 77.9819 36.9959 77.9685L36.8799 77.9528C36.7459 77.9327 36.6098 77.9103 36.4759 77.8857C35.8388 77.7708 35.2103 77.613 34.5944 77.4133C34.2343 77.2999 33.8809 77.1723 33.5342 77.0306C33.474 77.0059 33.1883 76.8806 33.3847 76.9701L33.0923 76.8403C32.9026 76.7552 32.7151 76.6679 32.5299 76.5761C31.6957 76.1591 30.8951 75.6779 30.1351 75.1367C29.9275 74.9912 29.7266 74.839 29.5258 74.689L29.4566 74.6353L29.3071 74.51L28.9767 74.2391C28.5438 73.872 28.1219 73.4892 27.718 73.0885C27.2805 72.6557 26.8602 72.208 26.4569 71.7454C26.0106 71.2327 25.62 70.7402 25.2696 70.2634C23.3473 67.5986 21.7918 64.6862 20.6451 61.6048C20.4688 61.1459 20.2992 60.687 20.1362 60.2236C20.0848 60.0546 19.9708 59.9119 19.8175 59.8248C19.6643 59.7378 19.4836 59.713 19.3127 59.7557C19.1416 59.8033 18.9965 59.917 18.909 60.0719C18.8215 60.2268 18.7989 60.4102 18.8462 60.5817C19.8385 63.4823 21.1389 66.2674 22.7252 68.889C23.9368 70.8878 25.3986 72.7227 27.0752 74.3488C28.3642 75.5877 29.8129 76.6477 31.3827 77.5006C32.5819 78.1498 33.8562 78.6483 35.1769 78.9848C36.0942 79.2171 37.0327 79.3551 37.9779 79.3967C38.4152 79.4367 38.856 79.4172 39.288 79.3385C39.9799 79.1661 39.7634 78.32 39.6385 77.814C39.4593 77.1191 39.1883 76.4514 38.8328 75.8285C38.0985 74.5055 37.0673 73.3661 36.0094 72.2871C34.9158 71.179 33.753 70.1381 32.6727 69.0143C31.586 67.892 30.5995 66.6763 29.7244 65.3812C28.018 62.8659 26.7843 60.0589 26.0842 57.0986C25.421 54.2697 25.3172 51.3379 25.7784 48.469C25.899 47.7527 26.0552 47.043 26.2427 46.3401C26.4659 45.5052 25.1736 45.147 24.9504 45.982L24.9549 45.9752Z" fill="#FBEAF7"/>
<path d="M20.9329 67.3713C20.77 69.5203 20.6316 71.676 20.9329 73.8183C21.1855 75.8061 21.9552 77.6922 23.1648 79.287C25.5328 82.3606 29.2244 84.1827 32.8267 85.3804C36.9672 86.7544 41.3483 87.2455 45.689 86.822C50.2108 86.3743 54.5429 84.9685 58.9509 83.9499C63.0732 82.9963 67.4566 82.383 71.6258 83.4082C72.151 83.538 72.6718 83.694 73.1881 83.8761C73.3595 83.9236 73.5426 83.9008 73.6973 83.8129C73.852 83.7249 73.9655 83.579 74.0128 83.4071C74.0602 83.2352 74.0375 83.0515 73.9498 82.8964C73.8621 82.7413 73.7166 82.6274 73.5452 82.5799C69.443 81.1338 64.9882 81.3958 60.7811 82.1927C56.4445 83.0142 52.2441 84.4469 47.8897 85.1811C43.7014 85.9004 39.4097 85.7357 35.2884 84.6976C33.3233 84.2088 31.416 83.5101 29.5993 82.6135C27.999 81.8497 26.5293 80.8365 25.2449 79.6116C23.9406 78.3498 23.0032 76.7557 22.5332 75.0002C22.0154 73.0214 22.0556 70.9418 22.1783 68.9159C22.2118 68.401 22.2497 67.8861 22.2877 67.3713C22.2877 67.1932 22.2171 67.0223 22.0916 66.8964C21.966 66.7705 21.7957 66.6997 21.6181 66.6997C21.4418 66.7037 21.2738 66.7757 21.1491 66.9008C21.0244 67.0259 20.9525 67.1944 20.9485 67.3713H20.9329Z" fill="#FBEAF7"/>
<path d="M52.3913 46.349C53.1862 49.1443 53.3869 52.0759 52.9805 54.954C52.5339 57.9483 51.5106 60.8269 49.9675 63.4291C49.167 64.7903 48.2452 66.076 47.2134 67.2704C46.1433 68.4724 45.0007 69.6072 43.7919 70.6685C42.6 71.6965 41.4716 72.7961 40.4128 73.9614C39.4442 75.0807 38.5827 76.3343 38.1809 77.767C38.0426 78.2774 37.7904 79.1706 38.5068 79.3452C38.6034 79.3636 38.7011 79.3763 38.7992 79.3832C39 79.4034 39.2009 79.4078 39.404 79.4101C40.2771 79.4083 41.1481 79.3266 42.0064 79.1661C43.3188 78.9227 44.5993 78.5299 45.8229 77.9953C47.4198 77.2961 48.9201 76.3932 50.2867 75.3091C52.0359 73.9142 53.5945 72.2945 54.9223 70.4917C56.6453 68.1697 58.0861 65.65 59.2142 62.9859C59.5534 62.2009 59.8741 61.4062 60.1761 60.6018C60.1995 60.5167 60.2059 60.4278 60.195 60.3402C60.1841 60.2526 60.1561 60.1681 60.1125 60.0913C60.069 60.0146 60.0108 59.9473 59.9413 59.8931C59.8718 59.839 59.7923 59.7991 59.7074 59.7758C59.5365 59.7325 59.3556 59.757 59.2022 59.8442C59.0488 59.9313 58.9348 60.0744 58.8839 60.2436C57.6697 63.4828 56.1186 66.6168 54.0831 69.4217C53.6702 69.9903 53.3131 70.4492 52.8288 71.0155C52.4032 71.517 51.9569 72.0005 51.4896 72.4661C51.0589 72.9004 50.6125 73.3145 50.1505 73.713C49.9273 73.9077 49.7042 74.0958 49.4631 74.2816L49.3582 74.3622L49.2555 74.4405L48.894 74.7114C48.076 75.3051 47.2142 75.8356 46.3161 76.2985C46.1108 76.4037 45.9055 76.5044 45.6979 76.6007L45.4033 76.735L45.2672 76.7954L45.1891 76.829C45.0775 76.8783 45.2917 76.7865 45.2136 76.8178C44.8312 76.976 44.4451 77.1253 44.0552 77.2655C43.373 77.4972 42.6768 77.6849 41.9707 77.8274C41.6738 77.8856 41.3725 77.9282 41.0779 77.9796C41.3011 77.9438 41.127 77.9796 41.0288 77.9796L40.8235 78.0043L40.4485 78.0378C40.0589 78.0706 39.6678 78.0833 39.2768 78.0759C39.1563 78.0759 39.0358 78.0759 38.9152 78.0602C38.7947 78.0446 38.5916 77.9819 38.8907 78.0602C38.7322 78.0155 39.2009 78.2841 39.1563 78.2259L39.3281 78.8795C39.6585 76.5873 41.3234 74.8166 42.9616 73.2518C44.8431 71.461 46.8473 69.8067 48.5168 67.7965C51.7552 63.9014 53.9291 59.1669 54.4223 54.0966C54.6838 51.3721 54.4332 48.6226 53.6836 45.9908C53.4604 45.1603 52.1547 45.5118 52.3935 46.3467L52.3913 46.349Z" fill="#FBEAF7"/>
</svg>
