<svg width="23" height="18" viewBox="0 0 23 18" fill="none" xmlns="http://www.w3.org/2000/svg">
<path d="M1.78448 18C1.28273 18 0.85989 17.8252 0.515947 17.4757C0.171982 17.1262 0 16.6965 0 16.1866V1.81343C0 1.30354 0.171982 0.873828 0.515947 0.524284C0.85989 0.174761 1.28273 0 1.78448 0H21.2155C21.7173 0 22.1401 0.174761 22.4841 0.524284C22.828 0.873828 23 1.30354 23 1.81343V16.1866C23 16.6965 22.828 17.1262 22.4841 17.4757C22.1401 17.8252 21.7173 18 21.2155 18H1.78448ZM11.5 8.56343L0.727012 1.20896V16.1866C0.727012 16.5 0.826149 16.7575 1.02443 16.959C1.2227 17.1604 1.47605 17.2612 1.78448 17.2612H21.2155C21.5239 17.2612 21.7773 17.1604 21.9756 16.959C22.1739 16.7575 22.273 16.5 22.273 16.1866V1.20896L11.5 8.56343ZM11.5 7.62313L21.7112 0.738806H1.32184L11.5 7.62313ZM0.727012 1.20896V0.738806V16.1866C0.727012 16.5 0.826149 16.7575 1.02443 16.959C1.2227 17.1604 1.47605 17.2612 1.78448 17.2612H0.727012V1.20896Z" fill="#FFE9FE"/>
</svg>
