<svg width="25" height="26" viewBox="0 0 25 26" fill="none" xmlns="http://www.w3.org/2000/svg">
<path d="M4.16667 21.592C5.48372 20.6705 6.80077 19.942 8.11782 19.4066C9.43487 18.8712 10.8956 18.6034 12.5 18.6034C14.1044 18.6034 15.5651 18.8712 16.8822 19.4066C18.1992 19.942 19.5163 20.6705 20.8333 21.592C21.863 20.4713 22.6832 19.1876 23.2938 17.741C23.9045 16.2945 24.2098 14.7141 24.2098 13C24.2098 9.61303 23.0723 6.73659 20.7974 4.37069C18.5225 2.00479 15.7567 0.821839 12.5 0.821839C9.24329 0.821839 6.47749 2.00479 4.20259 4.37069C1.92768 6.73659 0.79023 9.61303 0.79023 13C0.79023 14.7141 1.09555 16.2945 1.70618 17.741C2.31681 19.1876 3.13697 20.4713 4.16667 21.592ZM12.4904 13.4109C11.3474 13.4109 10.3867 13.0029 9.60848 12.1869C8.83022 11.3709 8.44109 10.3685 8.44109 9.17972C8.44109 7.99094 8.8334 6.99186 9.61803 6.18247C10.4027 5.37308 11.3665 4.96839 12.5096 4.96839C13.6526 4.96839 14.6133 5.3764 15.3915 6.19241C16.1698 7.00844 16.5589 8.01084 16.5589 9.19959C16.5589 10.3884 16.1666 11.3875 15.382 12.1968C14.5973 13.0062 13.6335 13.4109 12.4904 13.4109ZM12.5168 26C10.7575 26 9.12101 25.6638 7.60729 24.9914C6.09359 24.319 4.77056 23.3913 3.63818 22.2083C2.50583 21.0254 1.61638 19.6523 0.969828 18.0892C0.323276 16.5261 0 14.8326 0 13.0087C0 11.1849 0.323276 9.48851 0.969828 7.91954C1.61638 6.35057 2.50838 4.97462 3.64583 3.79167C4.78329 2.60872 6.10352 1.68103 7.60654 1.00862C9.10955 0.336207 10.7379 0 12.4916 0C14.2453 0 15.8764 0.336207 17.3851 1.00862C18.8937 1.68103 20.2167 2.60872 21.3542 3.79167C22.4916 4.97462 23.3836 6.35097 24.0302 7.92074C24.6767 9.4905 25 11.1778 25 12.9825C25 14.8122 24.6767 16.5141 24.0302 18.0884C23.3836 19.6627 22.4916 21.0386 21.3542 22.2163C20.2167 23.3939 18.8933 24.319 17.3839 24.9914C15.8745 25.6638 14.2522 26 12.5168 26ZM12.5 25.1782C13.8649 25.1782 15.2299 24.9229 16.5948 24.4124C17.9598 23.9018 19.1571 23.1609 20.1868 22.1897C19.1571 21.3429 17.9897 20.6705 16.6846 20.1724C15.3795 19.6743 13.9847 19.4253 12.5 19.4253C11.0153 19.4253 9.61446 19.6681 8.29741 20.1537C6.98036 20.6394 5.83094 21.318 4.84914 22.1897C5.85489 23.1609 7.04023 23.9018 8.40517 24.4124C9.77011 24.9229 11.1351 25.1782 12.5 25.1782ZM12.505 12.5891C13.4356 12.5891 14.2122 12.2636 14.8348 11.6126C15.4574 10.9616 15.7687 10.1522 15.7687 9.18442C15.7687 8.21665 15.4557 7.409 14.8297 6.76149C14.2038 6.11398 13.4256 5.79023 12.495 5.79023C11.5644 5.79023 10.7878 6.11573 10.1652 6.76672C9.54262 7.4177 9.23132 8.22708 9.23132 9.19489C9.23132 10.1627 9.5443 10.9703 10.1703 11.6178C10.7962 12.2653 11.5744 12.5891 12.505 12.5891Z" fill="#FFE9FE"/>
</svg>
