<svg width="26" height="24" viewBox="0 0 26 24" fill="none" xmlns="http://www.w3.org/2000/svg">
<path d="M9.04091 24L6.79545 20.2857L2.33409 19.4L2.83636 15.2L0 12L2.83636 8.82857L2.33409 4.62857L6.79545 3.74286L9.04091 0L13 1.77143L16.9591 0L19.2341 3.74286L23.6659 4.62857L23.1636 8.82857L26 12L23.1636 15.2L23.6659 19.4L19.2341 20.2857L16.9591 24L13 22.2286L9.04091 24ZM9.83864 21.7429L13 20.4571L16.25 21.7429L18.2295 18.8857L21.6864 18.0286L21.3318 14.6286L23.725 12L21.3318 9.31429L21.6864 5.91429L18.2295 5.11429L16.1909 2.25714L13 3.54286L9.75 2.25714L7.77045 5.11429L4.31364 5.91429L4.66818 9.31429L2.275 12L4.66818 14.6286L4.31364 18.0857L7.77045 18.8857L9.83864 21.7429ZM11.7295 15.8L18.4364 9.37143L17.1068 8.2L11.7295 13.3429L8.92273 10.5143L7.56364 11.8L11.7295 15.8Z" fill="#279345"/>
</svg>
